<svg width="348" height="729" viewBox="0 0 348 729" fill="none" xmlns="http://www.w3.org/2000/svg" xmlns:xlink="http://www.w3.org/1999/xlink">
<rect x="0.268555" width="347.269" height="702.175" fill="url(#pattern0)"/>
<mask id="mask0_493_819" style="mask-type:alpha" maskUnits="userSpaceOnUse" x="0" y="0" width="348" height="703">
<rect x="0.268555" width="347.269" height="702.175" fill="url(#pattern1)"/>
</mask>
<g mask="url(#mask0_493_819)">
<rect x="0.268555" width="347.269" height="702.175" fill="black" fill-opacity="0.01"/>
</g>
<path fill-rule="evenodd" clip-rule="evenodd" d="M18.9682 351.036C18.9682 257.93 18.9682 164.823 18.9692 71.7149C18.9692 64.7254 18.8987 57.7291 19.7617 50.7744C20.8451 42.0411 23.8195 34.1599 30.2597 27.8696C35.8002 22.4562 42.5741 19.5981 50.0919 18.311C53.9322 17.6526 57.8082 17.3547 61.7081 17.2891C69.492 17.1581 77.2739 17.1273 85.0598 17.2405C88.1136 17.2842 89.9995 19.4005 90.1276 22.06C90.2328 24.2666 90.2905 26.4813 90.7562 28.683C92.2588 35.7866 98.3316 41.4492 105.819 42.196C108.038 42.4175 110.253 42.5138 112.476 42.5138C153.231 42.5148 193.985 42.5138 234.739 42.5099C237.836 42.5099 240.926 42.4701 243.95 41.6538C251.379 39.6497 256.298 33.0774 256.666 25.3749C256.734 23.9479 256.794 22.5118 257.008 21.1016C257.331 18.9665 258.844 17.5781 260.978 17.3348C261.845 17.2355 262.721 17.1759 263.594 17.173C272.014 17.1501 280.44 17.0031 288.852 17.4153C295.547 17.743 302.134 18.8026 308.202 21.8634C318.07 26.8398 323.864 34.9663 326.307 45.6331C327.538 51.0108 327.792 56.4807 327.915 61.9617C327.991 65.3759 327.996 68.7932 327.996 72.2094C328.003 258.822 328.006 445.434 328.007 632.047C328.007 638.561 328.021 645.079 327.214 651.558C326.123 660.29 323.147 668.175 316.71 674.461C311.546 679.501 305.27 682.363 298.274 683.748C292.25 684.943 286.134 685.164 280.016 685.173C261.188 685.199 242.36 685.191 223.531 685.192C172.449 685.193 121.367 685.19 70.2845 685.195C64.0071 685.196 57.7298 685.134 51.503 684.236C41.8104 682.835 33.4128 678.996 27.2536 671.072C23.4669 666.201 21.3288 660.617 20.2403 654.599C18.99 647.683 18.993 640.685 18.99 633.696C18.9702 595.483 18.9781 557.272 18.9781 519.059C18.9771 463.052 18.9781 407.043 18.9781 351.036H18.9682Z" fill="#232323"/>
<mask id="mask1_493_819" style="mask-type:alpha" maskUnits="userSpaceOnUse" x="18" y="17" width="311" height="669">
<path fill-rule="evenodd" clip-rule="evenodd" d="M18.9682 351.036C18.9682 257.93 18.9682 164.823 18.9692 71.7149C18.9692 64.7254 18.8987 57.7291 19.7617 50.7744C20.8451 42.0411 23.8195 34.1599 30.2597 27.8696C35.8002 22.4562 42.5741 19.5981 50.0919 18.311C53.9322 17.6526 57.8082 17.3547 61.7081 17.2891C69.492 17.1581 77.2739 17.1273 85.0598 17.2405C88.1136 17.2842 89.9995 19.4005 90.1276 22.06C90.2328 24.2666 90.2905 26.4813 90.7562 28.683C92.2588 35.7866 98.3316 41.4492 105.819 42.196C108.038 42.4175 110.253 42.5138 112.476 42.5138C153.231 42.5148 193.985 42.5138 234.739 42.5099C237.836 42.5099 240.926 42.4701 243.95 41.6538C251.379 39.6497 256.298 33.0774 256.666 25.3749C256.734 23.9479 256.794 22.5118 257.008 21.1016C257.331 18.9665 258.844 17.5781 260.978 17.3348C261.845 17.2355 262.721 17.1759 263.594 17.173C272.014 17.1501 280.44 17.0031 288.852 17.4153C295.547 17.743 302.134 18.8026 308.202 21.8634C318.07 26.8398 323.864 34.9663 326.307 45.6331C327.538 51.0108 327.792 56.4807 327.915 61.9617C327.991 65.3759 327.996 68.7932 327.996 72.2094C328.003 258.822 328.006 445.434 328.007 632.047C328.007 638.561 328.021 645.079 327.214 651.558C326.123 660.29 323.147 668.175 316.71 674.461C311.546 679.501 305.27 682.363 298.274 683.748C292.25 684.943 286.134 685.164 280.016 685.173C261.188 685.199 242.36 685.191 223.531 685.192C172.449 685.193 121.367 685.19 70.2845 685.195C64.0071 685.196 57.7298 685.134 51.503 684.236C41.8104 682.835 33.4128 678.996 27.2536 671.072C23.4669 666.201 21.3288 660.617 20.2403 654.599C18.99 647.683 18.993 640.685 18.99 633.696C18.9702 595.483 18.9781 557.272 18.9781 519.059C18.9771 463.052 18.9781 407.043 18.9781 351.036H18.9682Z" fill="white"/>
</mask>
<g mask="url(#mask1_493_819)">
<path d="M18.8848 17.1846H327.966V685.229H18.8848V17.1846Z" fill="url(#pattern2)"/>
</g>
<defs>
<pattern id="pattern0" patternContentUnits="objectBoundingBox" width="1" height="1">
<use xlink:href="#image0_493_819" transform="scale(0.000687285 0.000339905)"/>
</pattern>
<pattern id="pattern1" patternContentUnits="objectBoundingBox" width="1" height="1">
<use xlink:href="#image0_493_819" transform="scale(0.000687285 0.000339905)"/>
</pattern>
<pattern id="pattern2" patternContentUnits="objectBoundingBox" width="1" height="1">
<use xlink:href="#image1_493_819" transform="translate(0 -0.000912239) scale(0.00133333 0.000616887)"/>
</pattern>
<image id="image0_493_819" width="1455" height="2942" xlink:href=""/>
</defs>
</svg>
