<svg width="199" height="49" viewBox="0 0 269 69" fill="none" xmlns="http://www.w3.org/2000/svg">
<circle cx="23.0889" cy="12" r="8.30406" stroke="#07C5B9" stroke-width="7.39187"/>
<rect x="3.69594" y="35.7274" width="40.6081" height="28.6081" rx="14.3041" stroke="#001817" stroke-width="7.39187"/>
<path d="M20.9441 25.8716C25.0593 30.7995 34.9631 35.1799 11.0883 36.611L41.8742 38.1914C42.5026 34.427 20.9441 25.8716 20.9441 25.8716Z" fill="#001817"/>
<path d="M73.141 63.966C71.2137 63.966 69.2863 63.672 67.359 63.084C65.4643 62.496 63.929 61.7284 62.753 60.781L64.909 56.322C65.595 56.812 66.3627 57.2367 67.212 57.596C68.0613 57.9554 68.9597 58.233 69.907 58.429C70.887 58.625 71.8507 58.723 72.798 58.723C74.5293 58.723 75.9667 58.4454 77.11 57.89C78.286 57.3674 79.168 56.5507 79.756 55.44C80.344 54.362 80.638 53.0064 80.638 51.373V46.62L81.52 46.963C81.324 47.9757 80.785 48.9394 79.903 49.854C79.021 50.7687 77.9103 51.52 76.571 52.108C75.2317 52.6634 73.8597 52.941 72.455 52.941C70.005 52.941 67.8327 52.3694 65.938 51.226C64.076 50.0827 62.5897 48.531 61.479 46.571C60.401 44.5784 59.862 42.2917 59.862 39.711C59.862 37.1304 60.401 34.8437 61.479 32.851C62.557 30.8257 64.027 29.2414 65.889 28.098C67.7837 26.922 69.907 26.334 72.259 26.334C73.239 26.334 74.1863 26.4484 75.101 26.677C76.0157 26.9057 76.8487 27.2324 77.6 27.657C78.384 28.0817 79.0863 28.5554 79.707 29.078C80.3277 29.6007 80.834 30.156 81.226 30.744C81.618 31.332 81.863 31.9037 81.961 32.459L80.687 32.851L80.785 26.873H86.714V50.932C86.714 53.0227 86.4037 54.8684 85.783 56.469C85.1623 58.0697 84.264 59.4254 83.088 60.536C81.912 61.6794 80.491 62.5287 78.825 63.084C77.159 63.672 75.2643 63.966 73.141 63.966ZM73.386 47.796C74.856 47.796 76.1463 47.453 77.257 46.767C78.4003 46.081 79.2823 45.1337 79.903 43.925C80.5237 42.7164 80.834 41.328 80.834 39.76C80.834 38.1594 80.5073 36.7547 79.854 35.546C79.2333 34.3047 78.3677 33.341 77.257 32.655C76.1463 31.969 74.856 31.626 73.386 31.626C71.916 31.626 70.6257 31.9854 69.515 32.704C68.4043 33.39 67.5223 34.3537 66.869 35.595C66.2483 36.8037 65.938 38.192 65.938 39.76C65.938 41.2954 66.2483 42.6837 66.869 43.925C67.5223 45.1337 68.4043 46.081 69.515 46.767C70.6257 47.453 71.916 47.796 73.386 47.796ZM94.3703 52.696V26.873H100.397V52.696H94.3703ZM97.3103 21.385C96.1016 21.385 95.1543 21.091 94.4683 20.503C93.8149 19.8824 93.4883 19.0167 93.4883 17.906C93.4883 16.8607 93.8313 16.0114 94.5173 15.358C95.2033 14.7047 96.1343 14.378 97.3103 14.378C98.5516 14.378 99.4989 14.6884 100.152 15.309C100.838 15.897 101.181 16.7627 101.181 17.906C101.181 18.9187 100.838 19.7517 100.152 20.405C99.4663 21.0584 98.5189 21.385 97.3103 21.385ZM119.653 63.966C117.725 63.966 115.798 63.672 113.871 63.084C111.976 62.496 110.441 61.7284 109.265 60.781L111.421 56.322C112.107 56.812 112.874 57.2367 113.724 57.596C114.573 57.9554 115.471 58.233 116.419 58.429C117.399 58.625 118.362 58.723 119.31 58.723C121.041 58.723 122.478 58.4454 123.622 57.89C124.798 57.3674 125.68 56.5507 126.268 55.44C126.856 54.362 127.15 53.0064 127.15 51.373V46.62L128.032 46.963C127.836 47.9757 127.297 48.9394 126.415 49.854C125.533 50.7687 124.422 51.52 123.083 52.108C121.743 52.6634 120.371 52.941 118.967 52.941C116.517 52.941 114.344 52.3694 112.45 51.226C110.588 50.0827 109.101 48.531 107.991 46.571C106.913 44.5784 106.374 42.2917 106.374 39.711C106.374 37.1304 106.913 34.8437 107.991 32.851C109.069 30.8257 110.539 29.2414 112.401 28.098C114.295 26.922 116.419 26.334 118.771 26.334C119.751 26.334 120.698 26.4484 121.613 26.677C122.527 26.9057 123.36 27.2324 124.112 27.657C124.896 28.0817 125.598 28.5554 126.219 29.078C126.839 29.6007 127.346 30.156 127.738 30.744C128.13 31.332 128.375 31.9037 128.473 32.459L127.199 32.851L127.297 26.873H133.226V50.932C133.226 53.0227 132.915 54.8684 132.295 56.469C131.674 58.0697 130.776 59.4254 129.6 60.536C128.424 61.6794 127.003 62.5287 125.337 63.084C123.671 63.672 121.776 63.966 119.653 63.966ZM119.898 47.796C121.368 47.796 122.658 47.453 123.769 46.767C124.912 46.081 125.794 45.1337 126.415 43.925C127.035 42.7164 127.346 41.328 127.346 39.76C127.346 38.1594 127.019 36.7547 126.366 35.546C125.745 34.3047 124.879 33.341 123.769 32.655C122.658 31.969 121.368 31.626 119.898 31.626C118.428 31.626 117.137 31.9854 116.027 32.704C114.916 33.39 114.034 34.3537 113.381 35.595C112.76 36.8037 112.45 38.192 112.45 39.76C112.45 41.2954 112.76 42.6837 113.381 43.925C114.034 45.1337 114.916 46.081 116.027 46.767C117.137 47.453 118.428 47.796 119.898 47.796ZM148.341 53.186C146.055 53.186 143.997 52.8104 142.167 52.059C140.371 51.275 138.901 50.1644 137.757 48.727L141.677 45.346C142.657 46.4567 143.752 47.257 144.96 47.747C146.169 48.237 147.443 48.482 148.782 48.482C149.338 48.482 149.828 48.4167 150.252 48.286C150.71 48.1554 151.102 47.9594 151.428 47.698C151.755 47.4367 152 47.1427 152.163 46.816C152.359 46.4567 152.457 46.0647 152.457 45.64C152.457 44.856 152.163 44.2354 151.575 43.778C151.249 43.5494 150.726 43.3044 150.007 43.043C149.321 42.7817 148.423 42.5204 147.312 42.259C145.548 41.8017 144.078 41.279 142.902 40.691C141.726 40.0704 140.812 39.3844 140.158 38.633C139.603 38.0124 139.178 37.31 138.884 36.526C138.623 35.742 138.492 34.8927 138.492 33.978C138.492 32.8347 138.737 31.8057 139.227 30.891C139.75 29.9437 140.452 29.127 141.334 28.441C142.216 27.755 143.245 27.2324 144.421 26.873C145.597 26.5137 146.822 26.334 148.096 26.334C149.403 26.334 150.661 26.4974 151.869 26.824C153.111 27.1507 154.254 27.6244 155.299 28.245C156.377 28.833 157.292 29.5517 158.043 30.401L154.711 34.076C154.091 33.488 153.405 32.9654 152.653 32.508C151.935 32.0507 151.2 31.6914 150.448 31.43C149.697 31.136 148.995 30.989 148.341 30.989C147.721 30.989 147.165 31.0544 146.675 31.185C146.185 31.283 145.777 31.4464 145.45 31.675C145.124 31.9037 144.862 32.1977 144.666 32.557C144.503 32.8837 144.421 33.2757 144.421 33.733C144.454 34.125 144.552 34.5007 144.715 34.86C144.911 35.1867 145.173 35.4644 145.499 35.693C145.859 35.9217 146.398 36.183 147.116 36.477C147.835 36.771 148.766 37.0487 149.909 37.31C151.51 37.7347 152.849 38.2084 153.927 38.731C155.005 39.2537 155.855 39.858 156.475 40.544C157.096 41.132 157.537 41.818 157.798 42.602C158.06 43.386 158.19 44.2517 158.19 45.199C158.19 46.7344 157.749 48.1064 156.867 49.315C156.018 50.5237 154.842 51.471 153.339 52.157C151.869 52.843 150.203 53.186 148.341 53.186ZM174.574 53.186C172.156 53.186 169.984 52.598 168.057 51.422C166.129 50.246 164.61 48.6454 163.5 46.62C162.389 44.5947 161.834 42.308 161.834 39.76C161.834 37.212 162.389 34.9254 163.5 32.9C164.61 30.8747 166.129 29.274 168.057 28.098C169.984 26.922 172.156 26.334 174.574 26.334C176.893 26.334 179 26.775 180.895 27.657C182.789 28.539 184.259 29.764 185.305 31.332L181.973 35.35C181.483 34.664 180.862 34.0434 180.111 33.488C179.359 32.9327 178.559 32.4917 177.71 32.165C176.86 31.8384 176.011 31.675 175.162 31.675C173.724 31.675 172.434 32.0344 171.291 32.753C170.18 33.439 169.298 34.4027 168.645 35.644C167.991 36.8527 167.665 38.2247 167.665 39.76C167.665 41.2954 167.991 42.6674 168.645 43.876C169.331 45.0847 170.245 46.0484 171.389 46.767C172.532 47.4857 173.806 47.845 175.211 47.845C176.06 47.845 176.877 47.7144 177.661 47.453C178.477 47.159 179.245 46.7507 179.964 46.228C180.682 45.7054 181.352 45.052 181.973 44.268L185.305 48.335C184.194 49.7724 182.659 50.9484 180.699 51.863C178.771 52.745 176.73 53.186 174.574 53.186ZM189.914 52.696V16.436H195.892V32.165L194.765 32.753C195.091 31.577 195.728 30.5154 196.676 29.568C197.623 28.588 198.75 27.804 200.057 27.216C201.363 26.628 202.703 26.334 204.075 26.334C206.035 26.334 207.668 26.726 208.975 27.51C210.314 28.294 211.31 29.47 211.964 31.038C212.65 32.606 212.993 34.566 212.993 36.918V52.696H206.966V37.359C206.966 36.0524 206.786 34.9744 206.427 34.125C206.067 33.243 205.512 32.606 204.761 32.214C204.009 31.7894 203.095 31.5934 202.017 31.626C201.135 31.626 200.318 31.773 199.567 32.067C198.848 32.3284 198.211 32.7204 197.656 33.243C197.133 33.733 196.708 34.3047 196.382 34.958C196.088 35.6114 195.941 36.33 195.941 37.114V52.696H192.952C192.364 52.696 191.808 52.696 191.286 52.696C190.796 52.696 190.338 52.696 189.914 52.696ZM229.524 53.186C227.401 53.186 225.473 52.598 223.742 51.422C222.011 50.246 220.622 48.6454 219.577 46.62C218.532 44.5947 218.009 42.2917 218.009 39.711C218.009 37.1304 218.532 34.8274 219.577 32.802C220.622 30.7767 222.043 29.1924 223.84 28.049C225.637 26.9057 227.662 26.334 229.916 26.334C231.223 26.334 232.415 26.53 233.493 26.922C234.571 27.2814 235.518 27.804 236.335 28.49C237.152 29.176 237.821 29.96 238.344 30.842C238.899 31.724 239.275 32.6714 239.471 33.684L238.148 33.341V26.873H244.224V52.696H238.099V46.522L239.52 46.277C239.291 47.159 238.867 48.0247 238.246 48.874C237.658 49.6907 236.907 50.4257 235.992 51.079C235.11 51.6997 234.114 52.206 233.003 52.598C231.925 52.99 230.765 53.186 229.524 53.186ZM231.19 47.845C232.595 47.845 233.836 47.502 234.914 46.816C235.992 46.13 236.825 45.1827 237.413 43.974C238.034 42.7327 238.344 41.3117 238.344 39.711C238.344 38.143 238.034 36.7547 237.413 35.546C236.825 34.3374 235.992 33.39 234.914 32.704C233.836 32.018 232.595 31.675 231.19 31.675C229.785 31.675 228.544 32.018 227.466 32.704C226.421 33.39 225.604 34.3374 225.016 35.546C224.428 36.7547 224.134 38.143 224.134 39.711C224.134 41.3117 224.428 42.7327 225.016 43.974C225.604 45.1827 226.421 46.13 227.466 46.816C228.544 47.502 229.785 47.845 231.19 47.845ZM254.005 52.696V20.307H260.032V52.696H254.005ZM248.909 32.459V26.873H265.667V32.459H248.909Z" fill="#001817"/>
</svg>
